# xmcd
#
# Track frame offsets: 
#        150
#        16127
#        35945
#        51371
#        70719
#        86043
#        104897
#        119002
#        134571
#        150457
#        165884
#        180866
#        196942
#        211471
#        229207
#        248246
#        264367
#        283117
#        299706
#        317231
#
# Disc length: 4440 seconds
#
# Revision: 0
# Processed by: cddbd v1.5.2PL0 Copyright (c) Steve Scherf et al.
# Submitted via: ExactAudioCopy v1.0b2
#
DISCID=30115614
DTITLE=Various Artist - Die besten Schlager des Jahrtausends_CD2
DYEAR=2014
DGENRE=Schlager
TTITLE0=Andrea Berg - Das Gefühl
TTITLE1=Udo Jürgens - Ich weiß, was ich will
TTITLE2=Wolfgang Petry - Einmal noch! 2014
TTITLE3=Nik P. - Ein Stern, der deinen Namen trägt
TTITLE4=Jürgen Drews - Wenn die Wunderkerzen brennen
TTITLE5=Roland Kaiser - Joana
TTITLE6=Andreas Martin - Ich fang dir den Mond
TTITLE7=Michael Wendler - Sie liebt den DJ
TTITLE8=Olaf Henning feat.IBO - Ibiza
TTITLE9=DJ Ötzi - Du bist es
TTITLE10=Fantasy - Ein weißes Boot
TTITLE11=Linda Hesse - Komm bitte nicht
TTITLE12=Olaf - Tausend rote Rosen
TTITLE13=Hansi Hinterseer - Hit -Medley
TTITLE14=Rainhard Fendrich - Mach Macho
TTITLE15=Matthias Reim - Verdammt ich lieb Dich
TTITLE16=Cora - Amsterdam
TTITLE17=Jan Smit - Bleiben wie du bist
TTITLE18=Christian Franke-Edward Simoni - Der Apfelbaum
TTITLE19=Michael Hirte - Tränen lügen nicht
EXTD=
EXTT0=
EXTT1=
EXTT2=
EXTT3=
EXTT4=
EXTT5=
EXTT6=
EXTT7=
EXTT8=
EXTT9=
EXTT10=
EXTT11=
EXTT12=
EXTT13=
EXTT14=
EXTT15=
EXTT16=
EXTT17=
EXTT18=
EXTT19=
PLAYORDER=
